<svg xmlns="http://www.w3.org/2000/svg" width="166.105" height="34.295" viewBox="0 0 166.105 34.295">
  <g id="mb-sb-logo-dark" transform="translate(369.545 -177.95)">
    <g id="Group_900" data-name="Group 900" transform="translate(-505.154 -172.102)">
      <path id="Path_498" data-name="Path 498" d="M5.492,0H28.8a5.492,5.492,0,0,1,5.492,5.492V28.8A5.492,5.492,0,0,1,28.8,34.295H5.492A5.492,5.492,0,0,1,0,28.8V5.492A5.492,5.492,0,0,1,5.492,0Z" transform="translate(135.609 350.052)" fill="#e7d85f"/>
      <g id="Group_858" data-name="Group 858" transform="translate(141.989 360.81)">
        <path id="Path_1" data-name="Path 1" d="M0,35.506H2.472v.754H2.5A2.968,2.968,0,0,1,4.554,35.3a2.7,2.7,0,0,1,2.5,1.313A3.153,3.153,0,0,1,9.428,35.3a2.536,2.536,0,0,1,2.794,2.654v4.721H9.75V38.621A1.208,1.208,0,0,0,8.493,37.28,1.1,1.1,0,0,0,7.347,38.4v4.274H4.875V38.621A1.208,1.208,0,0,0,3.618,37.28a1.109,1.109,0,0,0-1.145,1.2v4.19H0Z" transform="translate(0 -31.314)"/>
        <path id="Path_5" data-name="Path 5" d="M412.562,11.568a3.173,3.173,0,0,1-2.347-1.02h-.028v.81h-2.444V0h2.472V4.877a3.26,3.26,0,0,1,2.347-.894,3.608,3.608,0,0,1,3.562,3.8,3.6,3.6,0,0,1-3.562,3.786m-.74-5.476a1.638,1.638,0,0,0-1.662,1.69,1.669,1.669,0,1,0,3.338,0,1.641,1.641,0,0,0-1.676-1.69" transform="translate(-393.891)"/>
      </g>
    </g>
    <g id="Group_902" data-name="Group 902" transform="translate(-2.561 -279.05)">
      <path id="Path_578" data-name="Path 578" d="M13.5,6.641a4.516,4.516,0,0,0-3.4,1.881,3.87,3.87,0,0,0-3.58-1.881A4.246,4.246,0,0,0,3.581,8.022h-.04V6.942H0V17.2H3.541v-6a1.588,1.588,0,0,1,1.64-1.721,1.731,1.731,0,0,1,1.8,1.921v5.8h3.541V11.082a1.574,1.574,0,0,1,1.64-1.6,1.73,1.73,0,0,1,1.8,1.921v5.8H17.5V10.442c0-2.861-2.12-3.8-4-3.8" transform="translate(-321 458)" fill="#1b1d27"/>
      <path id="Path_579" data-name="Path 579" d="M27.421,7.92A4.67,4.67,0,0,0,24.06,6.64a5.167,5.167,0,0,0-5.1,5.442,5.149,5.149,0,0,0,5.1,5.421,4.549,4.549,0,0,0,3.361-1.46h.04V17.2h3.5V6.941H27.421Zm-2.3,6.562a2.289,2.289,0,0,1-2.4-2.4,2.391,2.391,0,1,1,4.781,0,2.306,2.306,0,0,1-2.381,2.4" transform="translate(-321 458)" fill="#1b1d27"/>
      <path id="Path_580" data-name="Path 580" d="M45.082,6.941h-4.6L36.9,10.521V0H33.359V17.2H36.9V13.1L41,17.2h4.561L40.2,11.841Z" transform="translate(-321 458)" fill="#1b1d27"/>
      <path id="Path_581" data-name="Path 581" d="M50.68,6.641a5.556,5.556,0,0,0-5.641,5.441A5.553,5.553,0,0,0,50.68,17.5,5.71,5.71,0,0,0,56,14.823l-2.561-1.281a2.815,2.815,0,0,1-2.5,1.141,2.1,2.1,0,0,1-2.221-2.12h7.442a3.712,3.712,0,0,0,.02-.481c0-3.6-2.381-5.441-5.5-5.441M48.82,10.6a1.767,1.767,0,0,1,1.96-1.66,1.821,1.821,0,0,1,1.94,1.66Z" transform="translate(-321 458)" fill="#1b1d27"/>
      <path id="Path_582" data-name="Path 582" d="M64.742,6.64a4.67,4.67,0,0,0-3.361,1.28V0H57.84V17.2h3.5v-1.16h.04a4.549,4.549,0,0,0,3.361,1.46,5.149,5.149,0,0,0,5.1-5.421,5.167,5.167,0,0,0-5.1-5.442m-1.061,7.842a2.306,2.306,0,0,1-2.38-2.4,2.391,2.391,0,1,1,4.781,0,2.289,2.289,0,0,1-2.4,2.4" transform="translate(-321 458)" fill="#1b1d27"/>
      <path id="Path_583" data-name="Path 583" d="M76.4,6.641a5.556,5.556,0,0,0-5.641,5.441A5.553,5.553,0,0,0,76.4,17.5a5.71,5.71,0,0,0,5.322-2.68l-2.561-1.281a2.815,2.815,0,0,1-2.5,1.141,2.1,2.1,0,0,1-2.221-2.12h7.442a3.713,3.713,0,0,0,.02-.481c0-3.6-2.381-5.441-5.5-5.441M74.541,10.6a1.767,1.767,0,0,1,1.96-1.66,1.821,1.821,0,0,1,1.94,1.66Z" transform="translate(-321 458)" fill="#1b1d27"/>
      <path id="Path_584" data-name="Path 584" d="M88.4,14.322c-.561,0-.8-.46-.8-1.42V9.641h2.161v-2.7H87.6V3.12H84.06V6.941H82.58v2.7h1.48v3.941c0,1.82.68,3.921,3.5,3.921a5.86,5.86,0,0,0,2.6-.64L89.281,14a1.674,1.674,0,0,1-.88.32" transform="translate(-321 458)" fill="#1b1d27"/>
      <path id="Path_585" data-name="Path 585" d="M96.181,14.322c-.561,0-.8-.46-.8-1.42V9.641h2.161v-2.7H95.38V3.12H91.84V6.941H90.36v2.7h1.48v3.941c0,1.82.68,3.921,3.5,3.921a5.86,5.86,0,0,0,2.6-.64L97.061,14a1.674,1.674,0,0,1-.88.32" transform="translate(-321 458)" fill="#1b1d27"/>
      <path id="Path_586" data-name="Path 586" d="M104.041,6.641A5.556,5.556,0,0,0,98.4,12.082a5.553,5.553,0,0,0,5.641,5.421,5.71,5.71,0,0,0,5.322-2.68L106.8,13.542a2.815,2.815,0,0,1-2.5,1.141,2.1,2.1,0,0,1-2.221-2.12h7.442a3.713,3.713,0,0,0,.02-.481c0-3.6-2.381-5.441-5.5-5.441m-1.86,3.961a1.767,1.767,0,0,1,1.96-1.66,1.821,1.821,0,0,1,1.94,1.66Z" transform="translate(-321 458)" fill="#1b1d27"/>
      <path id="Path_587" data-name="Path 587" d="M117.881,6.641a4.02,4.02,0,0,0-3.141,1.78h-.04V6.942h-3.541V17.2H114.7V11.8a2.128,2.128,0,0,1,2.1-2.08,2.988,2.988,0,0,1,1.84.56l1.48-3a4.246,4.246,0,0,0-2.24-.641" transform="translate(-321 458)" fill="#1b1d27"/>
    </g>
    <g id="Group_901" data-name="Group 901" transform="translate(-2.561 -279.05)" opacity="0.5">
      <path id="Path_588" data-name="Path 588" d="M2.621,25.651.349,31.2h.8l.5-1.256H4.114l.5,1.256h.816L3.164,25.651Zm-.707,3.64.974-2.433.966,2.433Z" transform="translate(-321 458)" fill="#1b1d27"/>
      <path id="Path_589" data-name="Path 589" d="M11.48,25.859a1.968,1.968,0,0,0-.916-.208H8.5V31.2h.752v-2.16h1.312a1.945,1.945,0,0,0,.916-.212,1.638,1.638,0,0,0,.64-.592,1.819,1.819,0,0,0,0-1.792,1.606,1.606,0,0,0-.64-.588m-.024,2.04a.956.956,0,0,1-.384.359,1.169,1.169,0,0,1-.556.128H9.252v-2.08h1.264a1.17,1.17,0,0,1,.556.129.952.952,0,0,1,.384.36,1.158,1.158,0,0,1,0,1.1" transform="translate(-321 458)" fill="#1b1d27"/>
      <path id="Path_590" data-name="Path 590" d="M18.5,25.859a1.965,1.965,0,0,0-.916-.208H15.524V31.2h.752v-2.16h1.312a1.943,1.943,0,0,0,.916-.212,1.64,1.64,0,0,0,.641-.592,1.832,1.832,0,0,0,0-1.792,1.609,1.609,0,0,0-.641-.588m-.023,2.04a.972.972,0,0,1-.385.359,1.166,1.166,0,0,1-.556.128H16.276v-2.08H17.54a1.167,1.167,0,0,1,.556.129.967.967,0,0,1,.385.36,1.166,1.166,0,0,1,0,1.1" transform="translate(-321 458)" fill="#1b1d27"/>
      <path id="Path_591" data-name="Path 591" d="M30.448,26.444a2.668,2.668,0,0,0-.9-.584,2.973,2.973,0,0,0-1.124-.208H26.372V31.2h2.072A2.951,2.951,0,0,0,29.56,31a2.631,2.631,0,0,0,.892-.584,2.726,2.726,0,0,0,.588-.883,2.973,2.973,0,0,0,0-2.2,2.683,2.683,0,0,0-.592-.879m-.232,3.063a1.894,1.894,0,0,1-.724.74,2.118,2.118,0,0,1-1.08.268H27.124V26.339h1.288a2.117,2.117,0,0,1,1.072.265,1.891,1.891,0,0,1,.728.735,2.176,2.176,0,0,1,.264,1.08,2.219,2.219,0,0,1-.26,1.088" transform="translate(-321 458)" fill="#1b1d27"/>
      <path id="Path_592" data-name="Path 592" d="M35.283,28.691h2.68v-.656h-2.68v-1.7h2.9v-.687H34.531V31.2h3.695v-.689H35.283Z" transform="translate(-321 458)" fill="#1b1d27"/>
      <path id="Path_593" data-name="Path 593" d="M44.235,28.507a2.373,2.373,0,0,0-.528-.3q-.288-.12-.58-.219a4.584,4.584,0,0,1-.532-.221,1.2,1.2,0,0,1-.388-.292.664.664,0,0,1-.148-.451.644.644,0,0,1,.264-.549,1.172,1.172,0,0,1,.712-.2,1.422,1.422,0,0,1,.652.143,1.749,1.749,0,0,1,.532.433l.512-.513a2.038,2.038,0,0,0-.7-.556,2.19,2.19,0,0,0-.976-.212,2.131,2.131,0,0,0-.892.18,1.484,1.484,0,0,0-.624.512,1.39,1.39,0,0,0-.228.805,1.5,1.5,0,0,0,.148.7,1.273,1.273,0,0,0,.388.451,2.486,2.486,0,0,0,.528.288c.192.078.385.149.576.217a4.127,4.127,0,0,1,.532.223,1.1,1.1,0,0,1,.388.317.812.812,0,0,1,.144.5.689.689,0,0,1-.3.591,1.333,1.333,0,0,1-.8.216,1.755,1.755,0,0,1-.848-.187,1.855,1.855,0,0,1-.608-.557l-.512.512a2.524,2.524,0,0,0,.824.7,2.415,2.415,0,0,0,1.12.24,2.1,2.1,0,0,0,1.372-.416,1.408,1.408,0,0,0,.508-1.152,1.615,1.615,0,0,0-.148-.731,1.366,1.366,0,0,0-.388-.477" transform="translate(-321 458)" fill="#1b1d27"/>
      <rect id="Rectangle_121" data-name="Rectangle 121" width="0.752" height="5.552" transform="translate(-272.973 483.651)" fill="#1b1d27"/>
      <path id="Path_594" data-name="Path 594" d="M54.788,28.931H56.7a2.07,2.07,0,0,1-.2.74,1.546,1.546,0,0,1-.66.66,2.146,2.146,0,0,1-1.012.224,1.932,1.932,0,0,1-1.024-.271,1.968,1.968,0,0,1-.712-.752,2.474,2.474,0,0,1,0-2.216,1.886,1.886,0,0,1,.727-.752,2.1,2.1,0,0,1,1.077-.273,2.2,2.2,0,0,1,.944.2,1.725,1.725,0,0,1,.7.588l.52-.519a2.483,2.483,0,0,0-.936-.737,3.058,3.058,0,0,0-2.349-.04,2.71,2.71,0,0,0-.9.609,2.835,2.835,0,0,0-.816,2.023,2.883,2.883,0,0,0,.812,2.033,2.76,2.76,0,0,0,.888.612,2.728,2.728,0,0,0,1.092.22,2.844,2.844,0,0,0,1.38-.329,2.286,2.286,0,0,0,.944-.979,3.49,3.49,0,0,0,.34-1.62v-.112h-2.72Z" transform="translate(-321 458)" fill="#1b1d27"/>
      <path id="Path_595" data-name="Path 595" d="M64.372,29.76l-3.089-4.109h-.527V31.2h.752V27.079L64.6,31.2h.528V25.651h-.752Z" transform="translate(-321 458)" fill="#1b1d27"/>
      <path id="Path_596" data-name="Path 596" d="M75.467,28.507a2.373,2.373,0,0,0-.528-.3q-.288-.12-.58-.219a4.584,4.584,0,0,1-.532-.221,1.2,1.2,0,0,1-.388-.292.664.664,0,0,1-.148-.451.644.644,0,0,1,.264-.549,1.172,1.172,0,0,1,.712-.2,1.422,1.422,0,0,1,.652.143,1.748,1.748,0,0,1,.532.433l.512-.513a2.038,2.038,0,0,0-.7-.556,2.19,2.19,0,0,0-.976-.212,2.131,2.131,0,0,0-.892.18,1.484,1.484,0,0,0-.624.512,1.39,1.39,0,0,0-.228.805,1.5,1.5,0,0,0,.148.7,1.273,1.273,0,0,0,.388.451,2.486,2.486,0,0,0,.528.288c.192.078.385.149.576.217a4.127,4.127,0,0,1,.532.223,1.1,1.1,0,0,1,.388.317.812.812,0,0,1,.144.5.689.689,0,0,1-.3.591,1.333,1.333,0,0,1-.8.216,1.755,1.755,0,0,1-.848-.187,1.855,1.855,0,0,1-.608-.557l-.512.512a2.524,2.524,0,0,0,.824.7,2.415,2.415,0,0,0,1.12.24,2.1,2.1,0,0,0,1.372-.416A1.408,1.408,0,0,0,76,29.715a1.615,1.615,0,0,0-.148-.731,1.366,1.366,0,0,0-.388-.477" transform="translate(-321 458)" fill="#1b1d27"/>
      <path id="Path_597" data-name="Path 597" d="M82.523,25.651l-1.572,2.4-1.565-2.4h-.871l2.056,3.1V31.2h.752V28.732l2.055-3.081Z" transform="translate(-321 458)" fill="#1b1d27"/>
      <path id="Path_598" data-name="Path 598" d="M88.827,28.507a2.373,2.373,0,0,0-.528-.3q-.288-.12-.58-.219a4.584,4.584,0,0,1-.532-.221,1.2,1.2,0,0,1-.388-.292.664.664,0,0,1-.148-.451.644.644,0,0,1,.264-.549,1.172,1.172,0,0,1,.712-.2,1.422,1.422,0,0,1,.652.143,1.749,1.749,0,0,1,.532.433l.512-.513a2.038,2.038,0,0,0-.7-.556,2.19,2.19,0,0,0-.976-.212,2.131,2.131,0,0,0-.892.18,1.484,1.484,0,0,0-.624.512,1.39,1.39,0,0,0-.228.805,1.5,1.5,0,0,0,.148.7,1.273,1.273,0,0,0,.388.451,2.486,2.486,0,0,0,.528.288c.192.078.385.149.576.217a4.127,4.127,0,0,1,.532.223,1.1,1.1,0,0,1,.388.317.812.812,0,0,1,.144.5.689.689,0,0,1-.3.591,1.333,1.333,0,0,1-.8.216,1.755,1.755,0,0,1-.848-.187,1.855,1.855,0,0,1-.608-.557l-.512.512a2.524,2.524,0,0,0,.824.7,2.415,2.415,0,0,0,1.12.24,2.1,2.1,0,0,0,1.372-.416,1.408,1.408,0,0,0,.508-1.152,1.615,1.615,0,0,0-.148-.731,1.366,1.366,0,0,0-.388-.477" transform="translate(-321 458)" fill="#1b1d27"/>
      <path id="Path_599" data-name="Path 599" d="M91.947,26.339h1.888V31.2h.752V26.339h1.88v-.687h-4.52Z" transform="translate(-321 458)" fill="#1b1d27"/>
      <path id="Path_600" data-name="Path 600" d="M100.355,28.691h2.68v-.656h-2.68v-1.7h2.9v-.687H99.6V31.2H103.3v-.689h-2.943Z" transform="translate(-321 458)" fill="#1b1d27"/>
      <path id="Path_601" data-name="Path 601" d="M111.436,25.651l-2.172,3.567-2.173-3.567h-.527V31.2h.752V27.3L109,30.067h.529l1.679-2.758V31.2h.752V25.651Z" transform="translate(-321 458)" fill="#1b1d27"/>
    </g>
  </g>
</svg>
